<svg width="32" height="52" viewBox="0 0 32 52" fill="none" xmlns="http://www.w3.org/2000/svg">
<path fill-rule="evenodd" clip-rule="evenodd" d="M0.90901 34.659C1.7201 33.8479 2.99637 33.7855 3.87902 34.4718L4.09099 34.659L16 46.5663L27.909 34.659C28.7201 33.8479 29.9964 33.7855 30.879 34.4718L31.091 34.659C31.9021 35.4701 31.9645 36.7464 31.2782 37.629L31.091 37.841L17.591 51.341C16.7799 52.1521 15.5036 52.2145 14.621 51.5282L14.409 51.341L0.90901 37.841C0.0303301 36.9623 0.0303301 35.5377 0.90901 34.659Z" fill="#848484"/>
<path fill-rule="evenodd" clip-rule="evenodd" d="M31.091 17.341C30.2799 18.1521 29.0036 18.2145 28.121 17.5282L27.909 17.341L16 5.43375L4.09099 17.341C3.2799 18.1521 2.00363 18.2145 1.12098 17.5282L0.90901 17.341C0.0979214 16.5299 0.0355291 15.2536 0.721835 14.371L0.909011 14.159L14.409 0.659009C15.2201 -0.15208 16.4964 -0.214472 17.379 0.471834L17.591 0.659009L31.091 14.159C31.9697 15.0377 31.9697 16.4623 31.091 17.341Z" fill="#848484"/>
</svg>
