<svg xmlns="http://www.w3.org/2000/svg" xmlns:xlink="http://www.w3.org/1999/xlink" viewBox="0,0,256,256" width="48px" height="48px"><g transform="translate(51.2,51.2) scale(0.6,0.6)"><g fill="none" fill-rule="nonzero" stroke="none" stroke-width="1" stroke-linecap="butt" stroke-linejoin="miter" stroke-miterlimit="10" stroke-dasharray="" stroke-dashoffset="0" font-family="none" font-weight="none" font-size="none" text-anchor="none" style="mix-blend-mode: normal"><g transform="scale(5.33333,5.33333)"><path d="M37.216,11.78c-0.023,-0.211 -0.211,-0.305 -0.351,-0.305c-0.14,0 -3.21,-0.234 -3.21,-0.234c0,0 -2.132,-2.132 -2.39,-2.343c-0.234,-0.234 -0.68,-0.164 -0.867,-0.117c-0.023,0 -0.469,0.141 -1.195,0.375c-0.726,-2.086 -1.968,-3.984 -4.194,-3.984h-0.211c-0.611,-0.797 -1.407,-1.172 -2.063,-1.172c-5.155,0 -7.639,6.444 -8.412,9.725c-2.015,0.633 -3.445,1.054 -3.609,1.125c-1.125,0.351 -1.148,0.375 -1.289,1.429c-0.117,0.797 -3.046,23.456 -3.046,23.456l22.8,4.265l12.373,-2.671c0.023,-0.047 -4.312,-29.338 -4.336,-29.549zM27.937,9.483c-0.562,0.164 -1.242,0.375 -1.921,0.609v-0.421c0,-1.265 -0.164,-2.296 -0.469,-3.117c1.171,0.141 1.898,1.43 2.39,2.929zM24.117,6.812c0.305,0.797 0.516,1.922 0.516,3.468v0.234c-1.265,0.398 -2.601,0.797 -3.984,1.242c0.773,-2.952 2.25,-4.405 3.468,-4.944zM22.617,5.359c0.234,0 0.469,0.094 0.656,0.234c-1.664,0.773 -3.421,2.718 -4.148,6.655c-1.101,0.351 -2.156,0.656 -3.163,0.984c0.844,-2.999 2.953,-7.873 6.655,-7.873z" fill="#7cb342"></path><path d="M36.865,11.428c-0.141,0 -3.21,-0.234 -3.21,-0.234c0,0 -2.132,-2.132 -2.39,-2.343c-0.095,-0.094 -0.212,-0.141 -0.305,-0.141l-1.711,35.29l12.373,-2.671c0,0 -4.335,-29.338 -4.359,-29.549c-0.094,-0.211 -0.258,-0.305 -0.398,-0.352z" fill="#558b2f"></path><path d="M24.792,18.593l-1.475,4.449c0,0 -1.337,-0.715 -2.927,-0.715c-2.374,0 -2.489,1.498 -2.489,1.867c0,2.028 5.301,2.812 5.301,7.583c0,3.757 -2.374,6.177 -5.578,6.177c-3.872,0 -5.808,-2.397 -5.808,-2.397l1.037,-3.411c0,0 2.028,1.752 3.734,1.752c1.129,0 1.59,-0.876 1.59,-1.521c0,-2.651 -4.333,-2.766 -4.333,-7.145c0,-3.665 2.628,-7.214 7.952,-7.214c1.981,-0.024 2.996,0.575 2.996,0.575z" fill="#ffffff"></path></g></g></g></svg>